<svg id="logo-company" xmlns="http://www.w3.org/2000/svg" xmlns:xlink="http://www.w3.org/1999/xlink" width="338" height="80" viewBox="0 0 338 80">
  <defs>
    <clipPath id="clip-path">
      <rect id="長方形_1294" data-name="長方形 1294" width="337.999" height="79.79" fill="none"/>
    </clipPath>
  </defs>
  <g id="_" data-name="#">
    <path id="パス_837" data-name="パス 837" d="M11.069,53.037,29.8,48.874,26.237,27.308,7.5,31.475Z" transform="translate(5.45 19.831)" fill="#66001a"/>
    <path id="パス_838" data-name="パス 838" d="M40.515,55.79,21.925,48.873,18.357,27.308l18.593,6.92Z" transform="translate(13.33 19.831)" fill="#c03"/>
    <path id="パス_839" data-name="パス 839" d="M31.194,55.924,42.515,37.039l13.372-9.915L44.562,46.01Z" transform="translate(22.649 19.697)" fill="#eb99ad"/>
    <path id="パス_840" data-name="パス 840" d="M3.566,40.663,16.518,59l-3.564-21.56L0,19.1Z" transform="translate(0 13.869)" fill="#f5ccd6"/>
    <path id="パス_841" data-name="パス 841" d="M0,20.85,12.952,39.189l18.733-4.167L18.733,16.686Z" transform="translate(0.001 12.117)" fill="#990026"/>
    <path id="パス_842" data-name="パス 842" d="M32.694,60.825,44.015,41.94,40.454,20.375,29.129,39.263Z" transform="translate(21.15 14.796)" fill="#33000d"/>
    <path id="パス_843" data-name="パス 843" d="M52.622,36.2,39.251,46.11,35.69,24.546l13.365-9.915Z" transform="translate(25.913 10.625)" fill="#990026"/>
    <path id="パス_844" data-name="パス 844" d="M48.275,23.285l-18.6-6.917L18.357,35.253l18.591,6.919Z" transform="translate(13.33 11.887)" fill="#eb99ad"/>
    <path id="パス_845" data-name="パス 845" d="M22.177,5.744,10.852,24.631,23.806,42.966,35.127,24.083Z" transform="translate(7.88 4.172)" fill="#c03"/>
    <path id="パス_846" data-name="パス 846" d="M11.321,9.912,0,28.794l18.731-4.164L30.056,5.744Z" transform="translate(0.001 4.172)" fill="#e06685"/>
    <path id="パス_847" data-name="パス 847" d="M17.413,5.744l18.593,6.919L48.96,31l-18.6-6.917Z" transform="translate(12.644 4.172)" fill="#f5ccd6"/>
    <path id="パス_848" data-name="パス 848" d="M41.554,4.008,28.186,13.923,41.14,32.261,54.5,22.345Z" transform="translate(20.465 2.91)" fill="#66001a"/>
    <path id="パス_849" data-name="パス 849" d="M30.783,0,17.413,9.915l18.595,6.919L49.375,6.919Z" transform="translate(12.643)" fill="#eb99ad"/>
    <path id="パス_850" data-name="パス 850" d="M19.926,4.165,6.56,14.082,25.292,9.917,38.661,0Z" transform="translate(4.764)" fill="#f5ccd6"/>
    <path id="パス_851" data-name="パス 851" d="M9.57,43.964l18.591,6.922,18.733-4.167L28.306,39.8Z" transform="translate(6.949 28.903)" fill="#33000d"/>
    <g id="グループ_2087" data-name="グループ 2087" transform="translate(0.001)">
      <g id="グループ_2086" data-name="グループ 2086" clip-path="url(#clip-path)">
        <path id="パス_852" data-name="パス 852" d="M71.925,46.449H67.078V27.813H74.79a6.572,6.572,0,0,1,4.8,1.633,6.114,6.114,0,0,1,1.673,4.6,6.116,6.116,0,0,1-1.673,4.6,6.565,6.565,0,0,1-4.8,1.633H71.925Zm0-10.083h1.6q2.672,0,2.672-2.325t-2.672-2.322h-1.6Z" transform="translate(48.701 20.198)" fill="#c03"/>
        <path id="パス_853" data-name="パス 853" d="M88.142,31.915h-6.58v3.114h6.264v4.1H81.562v3.211h6.58v4.1H76.717V27.813H88.142Z" transform="translate(55.7 20.198)" fill="#c03"/>
        <path id="パス_854" data-name="パス 854" d="M85.378,46.448V27.814h5.259L98.615,39.2V27.814h4.821V46.448H98.2L90.221,35.053V46.448Z" transform="translate(61.988 20.198)" fill="#c03"/>
        <path id="パス_855" data-name="パス 855" d="M108.063,27.813V42.344h6.364v4.1H103.219V27.813Z" transform="translate(74.942 20.198)" fill="#c03"/>
        <path id="パス_856" data-name="パス 856" d="M123.414,43.211h-6.921l-1.11,3.237h-5.164l7.092-18.634H122.6l7.094,18.634h-5.164Zm-1.282-3.682-2.177-6.2-2.175,6.2Z" transform="translate(80.023 20.198)" fill="#c03"/>
        <path id="パス_857" data-name="パス 857" d="M122.308,27.813h7.213a5.55,5.55,0,0,1,3.906,1.236,4.611,4.611,0,0,1,1.336,3.559,4.839,4.839,0,0,1-.507,2.337,4.278,4.278,0,0,1-1.545,1.566,5.953,5.953,0,0,1,1.766.608,3.888,3.888,0,0,1,1.191,1,3.837,3.837,0,0,1,.651,1.333,6.178,6.178,0,0,1,.2,1.585,5.591,5.591,0,0,1-.457,2.325,4.859,4.859,0,0,1-1.281,1.705,5.606,5.606,0,0,1-2.019,1.036,9.543,9.543,0,0,1-2.67.345h-7.783Zm4.842,7.316h.891q2.273,0,2.275-1.8t-2.275-1.8h-.891Zm0,7.564h1.067a5.415,5.415,0,0,0,2.617-.47,1.835,1.835,0,0,0,0-3.017,5.418,5.418,0,0,0-2.617-.468H127.15Z" transform="translate(88.801 20.198)" fill="#c03"/>
        <path id="パス_858" data-name="パス 858" d="M148.941,27.813h7.17a8.465,8.465,0,0,1,3.568.765,9.746,9.746,0,0,1,2.915,2.04,9.453,9.453,0,0,1,1.969,2.966,9.18,9.18,0,0,1,.01,7.069,9.4,9.4,0,0,1-1.954,2.979,9.65,9.65,0,0,1-2.914,2.051,8.533,8.533,0,0,1-3.6.765h-7.17Zm4.843,14.531H154.9a6.029,6.029,0,0,0,2.251-.394,4.719,4.719,0,0,0,1.662-1.089,4.6,4.6,0,0,0,1.039-1.645,5.862,5.862,0,0,0,.356-2.085,5.751,5.751,0,0,0-.368-2.077,4.644,4.644,0,0,0-2.717-2.741,5.925,5.925,0,0,0-2.223-.4h-1.115Z" transform="translate(108.137 20.198)" fill="#c03"/>
        <path id="パス_859" data-name="パス 859" d="M171.328,43.211h-6.92l-1.113,3.237h-5.161l7.091-18.634h5.289l7.1,18.634h-5.168Zm-1.282-3.682-2.175-6.2-2.178,6.2Z" transform="translate(114.812 20.198)" fill="#c03"/>
        <rect id="長方形_1293" data-name="長方形 1293" width="4.843" height="18.634" transform="translate(294.364 48.011)" fill="#c03"/>
        <path id="パス_860" data-name="パス 860" d="M175.98,27.828H183.2a5.554,5.554,0,0,1,3.9,1.236,4.6,4.6,0,0,1,1.333,3.559,4.8,4.8,0,0,1-.506,2.337,4.23,4.23,0,0,1-1.545,1.567,5.872,5.872,0,0,1,1.764.606,3.72,3.72,0,0,1,1.847,2.337,6.225,6.225,0,0,1,.2,1.579,5.64,5.64,0,0,1-.457,2.325,4.707,4.707,0,0,1-1.286,1.705,5.514,5.514,0,0,1-2.011,1.037,9.556,9.556,0,0,1-2.675.345H175.98Zm4.843,7.319h.885c1.521,0,2.275-.6,2.275-1.807s-.754-1.8-2.275-1.8h-.885Zm0,7.561h1.06a5.446,5.446,0,0,0,2.624-.47,1.834,1.834,0,0,0,0-3.014,5.425,5.425,0,0,0-2.624-.47h-1.06Z" transform="translate(127.769 20.209)" fill="#c03"/>
        <path id="パス_861" data-name="パス 861" d="M197.737,43.227h-6.916l-1.113,3.237H184.54l7.1-18.636h5.285l7.094,18.636h-5.166Zm-1.288-3.682-2.171-6.206L192.1,39.545Z" transform="translate(133.984 20.209)" fill="#c03"/>
        <path id="パス_862" data-name="パス 862" d="M54.356,37.287a9.833,9.833,0,0,1,.73-3.817,9.544,9.544,0,0,1,2.035-3.086,9.2,9.2,0,0,1,3.116-2.059,10.953,10.953,0,0,1,7.954,0,9.249,9.249,0,0,1,3.131,2.059,9.425,9.425,0,0,1,2.052,3.086,10.345,10.345,0,0,1,0,7.635,9.372,9.372,0,0,1-5.183,5.146,11.024,11.024,0,0,1-7.954,0,9.263,9.263,0,0,1-3.116-2.065,9.521,9.521,0,0,1-2.035-3.081,9.854,9.854,0,0,1-.73-3.818m4.847,0a5.057,5.057,0,0,0,.4,2.023,5.166,5.166,0,0,0,1.091,1.611,4.9,4.9,0,0,0,1.595,1.06,5.048,5.048,0,0,0,5.461-1.06,4.894,4.894,0,0,0,1.1-1.611,5.294,5.294,0,0,0,0-4.048,4.887,4.887,0,0,0-1.1-1.609,5.082,5.082,0,0,0-5.461-1.062,4.879,4.879,0,0,0-1.595,1.062A5.158,5.158,0,0,0,59.6,35.262a5.071,5.071,0,0,0-.4,2.025" transform="translate(39.465 20.026)" fill="#c03"/>
        <path id="パス_863" data-name="パス 863" d="M136.219,37.287a9.831,9.831,0,0,1,.728-3.817,9.6,9.6,0,0,1,2.037-3.086,9.144,9.144,0,0,1,3.11-2.059,10.971,10.971,0,0,1,7.961,0,9.31,9.31,0,0,1,3.129,2.059,9.47,9.47,0,0,1,2.049,3.086,10.278,10.278,0,0,1,0,7.635,9.355,9.355,0,0,1-5.178,5.146,11.043,11.043,0,0,1-7.961,0,9.207,9.207,0,0,1-3.11-2.065,9.581,9.581,0,0,1-2.037-3.081,9.852,9.852,0,0,1-.728-3.818m4.847,0a4.943,4.943,0,0,0,.4,2.023,5.118,5.118,0,0,0,1.084,1.611,5.05,5.05,0,0,0,5.453,1.06,5.079,5.079,0,0,0,0-9.389,5.013,5.013,0,0,0-5.453,1.062,5.11,5.11,0,0,0-1.084,1.609,4.957,4.957,0,0,0-.4,2.025" transform="translate(98.901 20.026)" fill="#c03"/>
        <path id="パス_864" data-name="パス 864" d="M74.313,18.24c0,3.975,2.876,7.1,7.41,7.1h4.186V21.584H82.1c-2.442,0-3.787-1.448-3.787-3.344s1.345-3.332,3.787-3.332h3.8V11.156H81.723c-4.534,0-7.41,3.118-7.41,7.084" transform="translate(53.954 8.101)" fill="#c03"/>
        <path id="パス_865" data-name="パス 865" d="M107.4,11.05a7.915,7.915,0,0,0-4.812,1.564,7.938,7.938,0,0,0-4.817-1.564,5.505,5.505,0,0,0-5.791,5.729v8.636h4V16.976a2.028,2.028,0,0,1,2.325-2.165c1.522,0,2.28.766,2.28,1.985v8.619h4V16.8c0-1.219.751-1.985,2.275-1.985a2.033,2.033,0,0,1,2.328,2.165v8.439h4V16.779A5.507,5.507,0,0,0,107.4,11.05" transform="translate(66.781 8.024)" fill="#c03"/>
        <path id="パス_866" data-name="パス 866" d="M112.976,11.051a7.271,7.271,0,1,0,7.436,7.269,7.233,7.233,0,0,0-7.436-7.269m-.007,10.78a3.366,3.366,0,0,1-3.437-3.515,3.439,3.439,0,1,1,6.877,0,3.369,3.369,0,0,1-3.44,3.515" transform="translate(76.616 8.025)" fill="#c03"/>
        <path id="パス_867" data-name="パス 867" d="M65.545,7.436v7.136a6.83,6.83,0,0,0-3.469-.9,7.136,7.136,0,0,0-7.353,7.269,7.137,7.137,0,0,0,7.353,7.269c3.6,0,4.954-1.742,7.472-2.893V7.436Zm-6.82,13.506a3.365,3.365,0,0,1,3.435-3.506,3.324,3.324,0,0,1,3.435,3.42v.18a3.326,3.326,0,0,1-3.435,3.421,3.365,3.365,0,0,1-3.435-3.515" transform="translate(39.731 5.4)" fill="#c03"/>
        <path id="パス_868" data-name="パス 868" d="M72.061,11.051A7.271,7.271,0,1,0,79.5,18.32a7.226,7.226,0,0,0-7.438-7.269m-.005,10.78a3.369,3.369,0,0,1-3.437-3.515,3.44,3.44,0,1,1,6.878,0,3.373,3.373,0,0,1-3.442,3.515" transform="translate(46.915 8.025)" fill="#c03"/>
        <path id="パス_869" data-name="パス 869" d="M89.548,11.051a7.271,7.271,0,1,0,7.434,7.269,7.233,7.233,0,0,0-7.434-7.269m-.007,10.78A3.371,3.371,0,0,1,86.1,18.317a3.439,3.439,0,1,1,6.877,0,3.368,3.368,0,0,1-3.438,3.515" transform="translate(59.61 8.025)" fill="#c03"/>
        <path id="パス_870" data-name="パス 870" d="M130.127,19.525l.164-.041a5.05,5.05,0,0,0,2.967-1.752,5.381,5.381,0,0,0,1-3.38,6.272,6.272,0,0,0-.376-2.185A5.013,5.013,0,0,0,130.9,9.151a7.383,7.383,0,0,0-2.681-.449h-7.425V27.119h4.622v-7.43l4.79,7.43h5.748Zm-1.422-3.111a3.647,3.647,0,0,1-2.266.618h-1.024V12.215h1.024a3.651,3.651,0,0,1,2.266.616,2.142,2.142,0,0,1,.811,1.794,2.126,2.126,0,0,1-.811,1.79" transform="translate(87.701 6.319)" fill="#c03"/>
        <path id="パス_871" data-name="パス 871" d="M143.975,22.621l.414-.383c.411-.387.765-.741,1.079-1.084.273-.293.528-.6.787-.939l-2.285-2.2a19.327,19.327,0,0,1-2.1,2.294l-.079.076-2.27-2.389.131-.067a10.065,10.065,0,0,0,1.429-.863,4.8,4.8,0,0,0,.929-.879,3.04,3.04,0,0,0,.5-.977,4.276,4.276,0,0,0,.145-1.17,4.076,4.076,0,0,0-.373-1.75,4.268,4.268,0,0,0-1.051-1.405,4.874,4.874,0,0,0-1.6-.937,5.991,5.991,0,0,0-2.035-.333,5.89,5.89,0,0,0-2.009.333,5.043,5.043,0,0,0-1.61.925,4.392,4.392,0,0,0-1.062,1.409,4.094,4.094,0,0,0-.385,1.759,4.912,4.912,0,0,0,1.255,2.993l.378.438-.594.28a10.993,10.993,0,0,0-1.364.734,5.04,5.04,0,0,0-1,.849,3.889,3.889,0,0,0-.848,1.34,4.765,4.765,0,0,0-.247,1.607,4.442,4.442,0,0,0,1.459,3.332,4.849,4.849,0,0,0,1.643.968,6.06,6.06,0,0,0,2.094.344,10.272,10.272,0,0,0,5.644-1.963l.078-.052L142.5,26.46h5.073Zm-5.268-.078a4.456,4.456,0,0,1-2.328.744,2.394,2.394,0,0,1-.777-.126,2.287,2.287,0,0,1-.637-.347,1.658,1.658,0,0,1-.447-.544,1.49,1.49,0,0,1-.167-.7c0-.689.544-1.372,1.617-2.033l.076-.047,2.779,2.979Zm-.841-6.428-.078.045-.06-.066a3.972,3.972,0,0,1-1.329-2.277,1.512,1.512,0,0,1,2.625-1.01,1.639,1.639,0,0,1,.437,1.139,2.676,2.676,0,0,1-1.595,2.168" transform="translate(94.459 6.979)" fill="#c03"/>
        <path id="パス_872" data-name="パス 872" d="M156.526,14.406a9.391,9.391,0,0,0-1.942-2.931A9.528,9.528,0,0,0,151.7,9.459a8.383,8.383,0,0,0-3.523-.756h-7.06V27.12h7.06a8.332,8.332,0,0,0,3.545-.756,9.37,9.37,0,0,0,4.812-4.973,8.96,8.96,0,0,0-.012-6.984m-4.5,5.629a4.757,4.757,0,0,1-2.772,2.8,6.163,6.163,0,0,1-2.292.4h-1.22V12.583h1.22a6.068,6.068,0,0,1,2.265.406,4.78,4.78,0,0,1,2.786,2.805,5.964,5.964,0,0,1,.371,2.118,6.07,6.07,0,0,1-.357,2.123" transform="translate(102.46 6.32)" fill="#c03"/>
      </g>
    </g>
  </g>
</svg>
